<svg width="372" height="373" viewBox="0 0 372 373" fill="none" xmlns="http://www.w3.org/2000/svg">
<path d="M311.976 119.449C311.724 119.795 311.365 120.135 310.899 120.469C312.381 120.869 313.492 121.801 314.232 123.266C314.932 124.652 315.112 126.005 314.772 127.325C314.428 128.637 313.646 129.601 312.426 130.217C310.926 130.974 309.496 131.002 308.135 130.3C306.77 129.589 305.552 128.186 304.482 126.089L303.604 124.35L302.793 124.76C302.14 125.09 301.702 125.524 301.482 126.062C301.257 126.591 301.327 127.218 301.692 127.941C302.014 128.578 302.42 129.002 302.91 129.214C303.395 129.417 303.904 129.385 304.436 129.116L306.344 132.895C305.525 133.309 304.639 133.439 303.686 133.286C302.733 133.132 301.827 132.693 300.969 131.967C300.101 131.245 299.376 130.309 298.795 129.159C297.915 127.415 297.657 125.811 298.022 124.347C298.375 122.878 299.344 121.743 300.93 120.941L307.063 117.844C308.401 117.157 309.322 116.457 309.825 115.743L310.048 115.631L311.976 119.449ZM310.926 123.901C310.644 123.343 310.263 122.891 309.781 122.543C309.29 122.2 308.779 122.021 308.246 122.006L305.814 123.234L306.527 124.646C307.482 126.538 308.645 127.214 310.014 126.676L310.243 126.577C310.713 126.339 311.018 125.978 311.155 125.492C311.293 125.007 311.217 124.477 310.926 123.901Z" fill="#FFDE2D"/>
<path d="M291.163 101.495C293.225 100.014 295.151 99.2967 296.941 99.3448C298.724 99.3986 300.182 100.215 301.316 101.793C302.319 103.188 302.585 104.687 302.113 106.289L303.592 105.461L305.815 108.553L287.544 121.685L285.073 118.247L291.627 113.537C290.13 113.411 288.916 112.701 287.987 111.409C286.859 109.838 286.554 108.193 287.074 106.473C287.579 104.75 288.879 103.137 290.973 101.632L291.163 101.495ZM293.384 105.113C292.083 106.047 291.284 106.935 290.986 107.774C290.679 108.62 290.82 109.451 291.407 110.268C292.193 111.362 293.183 111.794 294.375 111.562L299.454 107.911C300.056 106.841 299.961 105.755 299.169 104.653C298.371 103.543 297.299 103.206 295.954 103.644C295.311 103.854 294.454 104.343 293.384 105.113Z" fill="#FFDE2D"/>
<path d="M286.879 96.7709C285.763 97.8786 284.555 98.651 283.256 99.0881C281.956 99.5253 280.668 99.5793 279.391 99.25C278.108 98.9138 276.937 98.2121 275.877 97.1447C274.371 95.6269 273.607 93.9288 273.586 92.0505C273.559 90.1652 274.287 88.376 275.771 86.6827L276.52 85.8982C278.245 84.1851 280.11 83.2908 282.112 83.2153C284.108 83.1467 285.911 83.9233 287.521 85.5451C289.131 87.1669 289.898 88.9789 289.821 90.9812C289.738 92.9765 288.802 94.8617 287.014 96.6367L286.879 96.7709ZM284.115 93.5497C285.182 92.4902 285.801 91.4774 285.97 90.5113C286.132 89.552 285.842 88.6981 285.099 87.9496C284.377 87.2219 283.535 86.9288 282.575 87.0703C281.607 87.2186 280.51 87.9017 279.284 89.1194C278.237 90.1583 277.629 91.1677 277.46 92.1476C277.291 93.1276 277.574 93.9883 278.31 94.7299C279.039 95.4646 279.891 95.7474 280.865 95.5783C281.833 95.4161 282.916 94.7399 284.115 93.5497Z" fill="#FFDE2D"/>
<path d="M267.194 70.7688C268.787 70.3595 270.328 70.6989 271.819 71.7871C273.192 72.7889 273.953 73.9491 274.103 75.2675C274.245 76.5803 273.768 78.0036 272.673 79.5374L266.549 87.9261L263.13 85.4301L269.167 77.1598C270.14 75.8268 270.019 74.7169 268.804 73.8302C267.645 72.9839 266.555 72.8046 265.533 73.2925L258.918 82.3556L255.487 79.851L264.831 67.0491L268.05 69.3982L267.194 70.7688Z" fill="#FFDE2D"/>
<path d="M243.37 77.3884L245.226 73.9622L242.843 72.6715L244.322 69.9409L246.705 71.2315L250.472 64.2761C250.751 63.7608 250.853 63.3381 250.776 63.0079C250.7 62.6776 250.382 62.3614 249.824 62.0591C249.412 61.8358 249.031 61.6682 248.68 61.5562L250.208 58.7354C251.059 58.9075 251.871 59.2028 252.644 59.6214C255.254 61.0353 255.871 63.0743 254.495 65.7384L250.428 73.2477L252.463 74.35L250.984 77.0806L248.949 75.9783L247.093 79.4045L243.37 77.3884Z" fill="#FFDE2D"/>
<path d="M230.718 73.1371L230.526 56.728L220.375 69.6094L214.913 67.7462L221.798 47.56L225.971 48.9834L224.089 54.5013L220.424 63.8841L231.004 50.7L233.86 51.6741L234.168 68.5566L236.996 58.9039L238.878 53.386L243.038 54.8046L236.153 74.9908L230.718 73.1371Z" fill="#FFDE2D"/>
<path d="M205.49 44.4564C207.791 44.78 209.568 45.7498 210.82 47.3656C212.063 48.9801 212.519 50.9623 212.188 53.3122L212.131 53.7184C211.909 55.2947 211.407 56.6589 210.624 57.8111C209.839 58.9729 208.844 59.8093 207.638 60.3202C206.421 60.8394 205.097 60.9984 203.666 60.7971C201.519 60.4953 199.926 59.5811 198.889 58.0545C197.841 56.5266 197.492 54.52 197.842 52.0347L198.082 50.323L208.077 51.7283C208.085 50.6841 207.795 49.805 207.205 49.091C206.605 48.3755 205.783 47.9444 204.739 47.7975C203.124 47.5704 201.78 47.9781 200.706 49.0204L198.971 46.4244C199.724 45.623 200.673 45.0464 201.817 44.6945C202.96 44.3522 204.184 44.2729 205.49 44.4564ZM204.157 57.4048C204.989 57.5218 205.705 57.3365 206.306 56.849C206.898 56.3602 207.339 55.6038 207.631 54.5798L201.8 53.7599L201.753 54.0935C201.642 55.0246 201.793 55.7756 202.206 56.3464C202.617 56.9269 203.268 57.2797 204.157 57.4048Z" fill="#FFDE2D"/>
<path d="M190.958 45.5585C190.948 46.2323 190.715 46.7758 190.26 47.1891C189.795 47.6022 189.22 47.8038 188.537 47.7937C187.843 47.7835 187.275 47.5652 186.832 47.1387C186.38 46.7121 186.158 46.1619 186.168 45.4882C186.178 44.8242 186.41 44.2855 186.866 43.8723C187.321 43.4687 187.9 43.2722 188.603 43.2825C189.296 43.2927 189.864 43.5061 190.308 43.9228C190.751 44.3493 190.967 44.8945 190.958 45.5585Z" fill="#FFDE2D"/>
<path d="M168.111 44.5422C168.347 44.8993 168.54 45.3544 168.689 45.9077C169.583 44.6592 170.845 43.9446 172.476 43.764C174.019 43.5931 175.349 43.8976 176.468 44.6777C177.576 45.4589 178.205 46.5289 178.356 47.8878C178.541 49.5573 178.066 50.9068 176.933 51.9363C175.789 52.9669 174.048 53.6166 171.71 53.8854L169.774 54.0999L169.874 55.0025C169.954 55.7305 170.208 56.2919 170.635 56.6868C171.052 57.0827 171.664 57.236 172.469 57.1468C173.178 57.0683 173.717 56.8367 174.087 56.4518C174.448 56.068 174.595 55.58 174.529 54.988L178.737 54.5219C178.838 55.4343 178.65 56.3099 178.173 57.1488C177.696 57.9876 176.967 58.6824 175.987 59.2332C175.008 59.7936 173.877 60.1448 172.596 60.2867C170.655 60.5017 169.062 60.182 167.818 59.3274C166.565 58.4837 165.841 57.1785 165.645 55.412L164.889 48.5836C164.713 47.0899 164.379 45.9823 163.887 45.2606L163.859 45.0131L168.111 44.5422ZM171.915 47.0832C171.293 47.152 170.736 47.3514 170.242 47.6812C169.749 48.0207 169.402 48.4374 169.201 48.9313L169.501 51.6393L171.074 51.4652C173.18 51.2319 174.22 50.3797 174.195 48.9087L174.182 48.6596C174.124 48.1355 173.892 47.724 173.485 47.4251C173.079 47.1262 172.555 47.0123 171.915 47.0832Z" fill="#FFDE2D"/>
<path d="M144.011 57.7598C143.344 55.3099 143.346 53.2547 144.017 51.5943C144.691 49.9432 145.966 48.8625 147.841 48.352C149.499 47.9005 150.996 48.1761 152.332 49.1788L152.073 47.5034L155.748 46.5029L161.659 68.2128L157.574 69.3248L155.454 61.537C154.812 62.896 153.723 63.7845 152.187 64.2027C150.321 64.7106 148.673 64.4203 147.243 63.3319C145.807 62.2555 144.75 60.4735 144.072 57.9859L144.011 57.7598ZM148.176 56.9446C148.597 58.4899 149.149 59.5492 149.831 60.1225C150.516 60.7052 151.344 60.8645 152.314 60.6003C153.615 60.2463 154.365 59.4702 154.565 58.272L152.922 52.2368C152.13 51.2986 151.079 51.0077 149.769 51.3643C148.45 51.7235 147.76 52.6096 147.7 54.0228C147.671 54.6986 147.83 55.6725 148.176 56.9446Z" fill="#FFDE2D"/>
<path d="M138.086 60.1201C138.734 61.553 139.035 62.9547 138.99 64.3253C138.944 65.6959 138.544 66.9215 137.789 68.0019C137.026 69.0864 135.958 69.9383 134.588 70.5575C132.639 71.438 130.781 71.5594 129.014 70.9217C127.238 70.2881 125.817 68.98 124.75 66.9974L124.277 66.0216C123.275 63.8056 123.09 61.7463 123.72 59.8436C124.354 57.9498 125.712 56.5325 127.794 55.5916C129.877 54.6508 131.843 54.5664 133.692 55.3384C135.532 56.1145 136.971 57.6505 138.008 59.9466L138.086 60.1201ZM134.102 61.5828C133.483 60.2122 132.75 59.2787 131.904 58.7821C131.062 58.2945 130.161 58.2678 129.2 58.702C128.265 59.1242 127.696 59.8098 127.493 60.759C127.293 61.7171 127.55 62.9838 128.261 64.559C128.868 65.9028 129.601 66.8254 130.46 67.3269C131.319 67.8283 132.224 67.8639 133.177 67.4337C134.12 67.0075 134.683 66.3085 134.865 65.3366C135.052 64.3737 134.797 63.1224 134.102 61.5828Z" fill="#FFDE2D"/>
<path d="M106.841 69.4651C107.014 67.83 107.872 66.5045 109.413 65.4886C110.831 64.5533 112.184 64.2461 113.472 64.5668C114.751 64.893 115.918 65.8375 116.972 67.4003L122.688 76.0712L119.154 78.4014L113.518 69.8528C112.61 68.4749 111.528 68.1999 110.272 69.0276C109.074 69.8178 108.524 70.7765 108.624 71.9038L114.8 81.2718L111.254 83.61L102.53 70.3774L105.856 68.1843L106.841 69.4651Z" fill="#FFDE2D"/>
<path d="M104.708 94.0992L102.147 91.1622L100.105 92.943L98.0641 90.6022L100.107 88.8214L94.9086 82.859C94.5236 82.4173 94.163 82.1746 93.8268 82.1308C93.4907 82.087 93.0834 82.2737 92.6049 82.6908C92.2516 82.9989 91.9612 83.2974 91.7338 83.5863L89.6257 81.1683C90.0845 80.4314 90.6451 79.7742 91.3076 79.1966C93.5454 77.2457 95.6714 77.3809 97.6857 79.6023L103.298 86.0395L105.042 84.5185L107.083 86.8593L105.338 88.3803L107.899 91.3173L104.708 94.0992Z" fill="#FFDE2D"/>
<path d="M96.2993 104.465L80.8599 98.9045L89.3763 112.92L85.72 117.386L69.2178 103.874L72.0111 100.463L76.522 104.156L84.03 110.872L75.3798 96.3485L77.2915 94.0137L93.2152 99.6304L85.1618 93.6043L80.6509 89.9109L83.4349 86.5107L99.937 100.022L96.2993 104.465Z" fill="#FFDE2D"/>
<path d="M60.6054 118.066C61.7137 116.023 63.2437 114.698 65.1955 114.09C67.1426 113.491 69.159 113.757 71.2449 114.889L71.6054 115.085C73.0046 115.844 74.1069 116.792 74.9122 117.928C75.7262 119.07 76.1615 120.295 76.2183 121.603C76.2789 122.925 75.9647 124.221 75.2755 125.492C74.2417 127.397 72.8282 128.569 71.0351 129.007C69.2373 129.454 67.2354 129.079 65.0293 127.882L63.51 127.058L68.3227 118.187C67.3476 117.813 66.4224 117.778 65.5471 118.081C64.6671 118.392 63.9756 119.011 63.4727 119.938C62.695 121.372 62.6067 122.774 63.2076 124.144L60.1684 124.862C59.6814 123.876 59.4732 122.785 59.5437 121.59C59.6228 120.4 59.9767 119.225 60.6054 118.066ZM72.2696 123.844C72.67 123.106 72.7471 122.37 72.5007 121.636C72.2496 120.911 71.6955 120.233 70.8383 119.601L68.0303 124.777L68.3264 124.938C69.1598 125.368 69.9161 125.489 70.5953 125.302C71.283 125.12 71.8411 124.634 72.2696 123.844Z" fill="#FFDE2D"/>
<path d="M56.554 132.066C57.1817 132.311 57.6095 132.719 57.8374 133.29C58.0617 133.87 58.0496 134.479 57.8011 135.116C57.549 135.761 57.1458 136.217 56.5913 136.483C56.0332 136.758 55.4403 136.773 54.8126 136.528C54.194 136.287 53.7707 135.88 53.5428 135.309C53.3241 134.742 53.3425 134.13 53.5981 133.475C53.8502 132.829 54.2489 132.372 54.7943 132.102C55.3488 131.837 55.9354 131.824 56.554 132.066Z" fill="#FFDE2D"/>
<path d="M47.6098 153.113C48.0269 153.017 48.5207 152.996 49.0914 153.049C48.2343 151.775 48.0064 150.343 48.4076 148.752C48.7874 147.247 49.5382 146.107 50.6601 145.332C51.7797 144.567 53.0023 144.352 54.3279 144.686C55.9566 145.097 57.0549 146.013 57.6227 147.436C58.1882 148.867 58.1878 150.726 57.6217 153.01L57.1453 154.899L58.0259 155.121C58.7361 155.3 59.3508 155.259 59.87 154.997C60.3869 154.745 60.7444 154.226 60.9427 153.44C61.117 152.748 61.0886 152.162 60.8575 151.681C60.624 151.209 60.2185 150.9 59.6409 150.755L60.6762 146.65C61.5663 146.874 62.3208 147.357 62.9398 148.097C63.5588 148.837 63.9548 149.763 64.1278 150.874C64.3102 151.988 64.2438 153.169 63.9285 154.419C63.4509 156.313 62.5941 157.693 61.3583 158.56C60.1296 159.439 58.6535 159.661 56.9302 159.226L50.2687 157.546C48.808 157.187 47.6535 157.113 46.8052 157.322L46.5637 157.261L47.6098 153.113ZM51.3209 150.439C51.1681 151.045 51.1597 151.637 51.2959 152.215C51.4415 152.796 51.7106 153.266 52.103 153.627L54.7449 154.294L55.1318 152.76C55.65 150.705 55.2157 149.432 53.8288 148.941L53.5909 148.866C53.0796 148.737 52.6128 148.811 52.1906 149.087C51.7685 149.363 51.4786 149.814 51.3209 150.439Z" fill="#FFDE2D"/>
<path d="M51.5614 180.314C49.033 180.082 47.1084 179.361 45.7878 178.151C44.4768 176.942 43.9102 175.37 44.0879 173.435C44.2451 171.724 45.027 170.418 46.4336 169.517L44.7735 169.173L45.1218 165.381L67.5275 167.438L67.1404 171.654L59.1029 170.916C60.1514 171.993 60.6029 173.324 60.4573 174.909C60.2805 176.835 59.4321 178.277 57.9123 179.235C56.4013 180.205 54.3621 180.572 51.7948 180.336L51.5614 180.314ZM52.2549 176.127C53.8497 176.273 55.0351 176.127 55.8109 175.689C56.5964 175.251 57.0351 174.531 57.1271 173.529C57.2504 172.187 56.7858 171.213 55.7333 170.607L49.5046 170.034C48.3487 170.448 47.7087 171.331 47.5845 172.682C47.4595 174.044 48.0483 175 49.351 175.551C49.9741 175.815 50.9421 176.006 52.2549 176.127Z" fill="#FFDE2D"/>
<path d="M51.7002 186.69C53.2689 186.585 54.6874 186.793 55.9556 187.315C57.2238 187.837 58.232 188.64 58.9801 189.726C59.7289 190.821 60.1536 192.118 60.2542 193.619C60.3973 195.753 59.8611 197.536 58.6456 198.968C57.4307 200.41 55.708 201.284 53.4774 201.59L52.3978 201.692C49.9716 201.855 47.9775 201.308 46.4153 200.052C44.8629 198.796 44.0103 197.028 43.8574 194.748C43.7045 192.468 44.3131 190.597 45.6832 189.134C47.054 187.682 48.9963 186.872 51.5102 186.703L51.7002 186.69ZM51.6765 190.935C50.1759 191.035 49.0451 191.395 48.284 192.014C47.5327 192.632 47.1923 193.467 47.2629 194.519C47.3315 195.542 47.7748 196.315 48.5928 196.838C49.4206 197.36 50.6968 197.563 52.4215 197.447C53.8928 197.349 55.0135 196.985 55.7837 196.356C56.5539 195.727 56.904 194.891 56.8341 193.848C56.7649 192.815 56.3069 192.044 55.4603 191.533C54.6234 191.021 53.3621 190.822 51.6765 190.935Z" fill="#FFDE2D"/>
<path d="M49.5243 219.231C48.0533 218.496 47.1114 217.229 46.6987 215.43C46.3188 213.774 46.5043 212.399 47.2553 211.305C48.0084 210.22 49.3014 209.458 51.134 209.017L61.2569 206.695L62.2034 210.822L52.2234 213.111C50.6147 213.48 49.9786 214.397 50.3148 215.863C50.6358 217.262 51.3418 218.112 52.4327 218.413L63.3694 215.904L64.3192 220.045L48.8708 223.589L47.98 219.705L49.5243 219.231Z" fill="#FFDE2D"/>
<path d="M71.8558 229.846L68.2086 231.218L69.1623 233.754L66.2555 234.847L65.3018 232.311L57.8977 235.094C57.3492 235.301 56.9957 235.553 56.8371 235.853C56.6785 236.153 56.7109 236.6 56.9343 237.194C57.0992 237.632 57.2773 238.009 57.4684 238.323L54.4657 239.452C53.9359 238.765 53.5163 238.009 53.207 237.187C52.1622 234.408 53.0326 232.463 55.8182 231.353L63.8119 228.348L62.9974 226.182L65.9041 225.089L66.7187 227.255L70.3659 225.884L71.8558 229.846Z" fill="#FFDE2D"/>
<path d="M78.6253 241.35L68.0148 253.869L84.1244 250.793L87.0287 255.781L68.5979 266.514L66.3791 262.703L71.4172 259.77L80.3348 255.085L63.7033 258.108L62.1848 255.501L73.0171 242.548L64.5544 247.984L59.5163 250.918L57.3049 247.121L75.7358 236.388L78.6253 241.35Z" fill="#FFDE2D"/>
<path d="M78.8804 279.547C77.3542 277.794 76.6479 275.897 76.7613 273.856C76.8812 271.822 77.8361 270.026 79.6258 268.468L79.9352 268.199C81.1357 267.153 82.4094 266.452 83.7561 266.096C85.1102 265.732 86.4101 265.753 87.6557 266.158C88.9152 266.563 90.0194 267.311 90.9684 268.401C92.392 270.036 92.9954 271.77 92.7786 273.603C92.5683 275.444 91.5166 277.188 89.6238 278.836L88.3201 279.971L81.6928 272.359C81.0019 273.142 80.6452 273.996 80.6226 274.922C80.6066 275.856 80.9448 276.72 81.6373 277.515C82.7082 278.745 83.9906 279.319 85.4846 279.235L85.0938 282.333C83.9994 282.444 82.9048 282.258 81.81 281.774C80.7226 281.283 79.7461 280.541 78.8804 279.547ZM88.3736 270.641C87.8221 270.007 87.1596 269.678 86.3862 269.652C85.6191 269.633 84.7898 269.915 83.8982 270.497L87.7649 274.939L88.019 274.717C88.7132 274.087 89.0915 273.421 89.1539 272.719C89.2236 272.011 88.9635 271.318 88.3736 270.641Z" fill="#FFDE2D"/>
<path d="M90.5781 288.239C91.0272 287.737 91.5591 287.479 92.1739 287.465C92.7959 287.458 93.3618 287.682 93.8714 288.138C94.3883 288.6 94.6743 289.137 94.7294 289.75C94.7917 290.368 94.5983 290.929 94.1493 291.432C93.7067 291.927 93.178 292.181 92.5632 292.195C91.955 292.201 91.3887 291.97 90.8645 291.501C90.3476 291.039 90.0584 290.506 89.9968 289.9C89.9418 289.288 90.1355 288.734 90.5781 288.239Z" fill="#FFDE2D"/>
<path d="M107.167 303.981C107.223 303.557 107.375 303.087 107.625 302.571C106.132 302.928 104.71 302.641 103.36 301.708C102.083 300.826 101.277 299.724 100.944 298.402C100.619 297.085 100.845 295.865 101.622 294.74C102.577 293.358 103.82 292.649 105.351 292.615C106.89 292.586 108.63 293.236 110.572 294.566L112.175 295.673L112.692 294.926C113.108 294.323 113.284 293.733 113.22 293.155C113.165 292.582 112.804 292.066 112.137 291.605C111.55 291.2 110.991 291.021 110.459 291.07C109.936 291.123 109.504 291.395 109.166 291.885L105.683 289.479C106.204 288.724 106.92 288.186 107.83 287.865C108.74 287.544 109.746 287.497 110.847 287.724C111.954 287.942 113.038 288.418 114.099 289.151C115.706 290.261 116.699 291.546 117.079 293.007C117.472 294.465 117.164 295.926 116.154 297.388L112.249 303.041C111.403 304.284 110.929 305.339 110.828 306.207L110.686 306.412L107.167 303.981ZM105.959 299.569C106.474 299.924 107.026 300.139 107.615 300.214C108.21 300.281 108.745 300.193 109.22 299.952L110.769 297.71L109.467 296.811C107.723 295.607 106.379 295.568 105.434 296.696L105.28 296.892C104.981 297.326 104.886 297.789 104.997 298.281C105.108 298.774 105.429 299.203 105.959 299.569Z" fill="#FFDE2D"/>
<path d="M134.032 309.795C132.93 312.082 131.581 313.633 129.986 314.447C128.394 315.252 126.723 315.233 124.973 314.39C123.424 313.644 122.474 312.454 122.123 310.822L121.22 312.257L117.789 310.603L127.555 290.333L131.368 292.171L127.865 299.442C129.241 298.837 130.646 298.879 132.08 299.57C133.822 300.409 134.876 301.709 135.243 303.468C135.622 305.223 135.252 307.261 134.133 309.584L134.032 309.795ZM130.351 307.68C131.046 306.238 131.324 305.076 131.185 304.196C131.049 303.307 130.529 302.644 129.622 302.207C128.408 301.622 127.333 301.717 126.397 302.491L123.682 308.126C123.665 309.353 124.268 310.262 125.491 310.851C126.722 311.444 127.824 311.227 128.796 310.199C129.261 309.708 129.779 308.868 130.351 307.68Z" fill="#FFDE2D"/>
<path d="M140.053 311.895C140.503 310.389 141.195 309.133 142.127 308.127C143.06 307.122 144.165 306.458 145.444 306.137C146.731 305.819 148.096 305.875 149.536 306.306C151.586 306.918 153.068 308.044 153.985 309.684C154.911 311.326 155.127 313.246 154.633 315.443L154.351 316.49C153.655 318.819 152.445 320.496 150.722 321.521C149.002 322.535 147.047 322.716 144.858 322.061C142.669 321.407 141.129 320.182 140.238 318.387C139.357 316.595 139.277 314.492 139.999 312.078L140.053 311.895ZM144.021 313.402C143.591 314.843 143.532 316.028 143.845 316.958C144.162 317.878 144.825 318.489 145.835 318.791C146.818 319.085 147.697 318.94 148.473 318.356C149.251 317.763 149.888 316.639 150.383 314.983C150.805 313.57 150.856 312.393 150.537 311.451C150.217 310.509 149.556 309.889 148.555 309.59C147.563 309.293 146.68 309.452 145.905 310.067C145.133 310.672 144.505 311.784 144.021 313.402Z" fill="#FFDE2D"/>
<path d="M169.776 325.317C168.574 326.438 167.057 326.877 165.228 326.635C163.543 326.411 162.32 325.756 161.558 324.67C160.805 323.585 160.543 322.107 160.772 320.236L162.137 309.941L166.334 310.497L164.987 320.648C164.77 322.284 165.407 323.201 166.898 323.398C168.321 323.587 169.365 323.223 170.028 322.306L171.504 311.183L175.715 311.742L173.63 327.454L169.681 326.93L169.776 325.317Z" fill="#FFDE2D"/>
<path d="M187.533 308.11L187.542 312.007L190.252 312L190.259 315.106L187.549 315.112L187.567 323.022C187.568 323.608 187.682 324.028 187.907 324.281C188.132 324.535 188.562 324.661 189.197 324.659C189.665 324.658 190.08 324.623 190.442 324.554L190.449 327.762C189.619 328.018 188.765 328.146 187.886 328.148C184.917 328.155 183.4 326.66 183.335 323.662L183.316 315.122L181.001 315.127L180.994 312.021L183.309 312.016L183.3 308.12L187.533 308.11Z" fill="#FFDE2D"/>
<path d="M200.678 305.793L208.694 320.112L211.449 303.944L217.137 302.968L220.744 323.989L216.398 324.735L215.412 318.989L214.144 308.996L211.158 325.634L208.184 326.145L199.839 311.466L201.971 321.295L202.957 327.041L198.626 327.785L195.019 306.764L200.678 305.793Z" fill="#FFDE2D"/>
<path d="M236.551 318.916C234.375 319.732 232.35 319.73 230.478 318.91C228.615 318.086 227.266 316.564 226.433 314.342L226.289 313.958C225.729 312.467 225.518 311.029 225.655 309.643C225.789 308.247 226.263 307.036 227.077 306.011C227.898 304.973 228.985 304.2 230.338 303.692C232.368 302.931 234.203 302.972 235.845 303.817C237.495 304.657 238.762 306.253 239.643 308.603L240.251 310.221L230.801 313.767C231.293 314.688 231.968 315.321 232.828 315.666C233.697 316.007 234.625 315.993 235.612 315.622C237.139 315.049 238.125 314.049 238.569 312.62L241.335 314.07C241.056 315.134 240.499 316.094 239.662 316.95C238.822 317.797 237.785 318.453 236.551 318.916ZM231.528 306.907C230.742 307.202 230.202 307.707 229.907 308.423C229.621 309.135 229.595 310.01 229.828 311.049L235.342 308.981L235.223 308.665C234.876 307.794 234.384 307.207 233.749 306.903C233.11 306.59 232.37 306.591 231.528 306.907Z" fill="#FFDE2D"/>
<path d="M248.786 310.998C248.473 310.401 248.417 309.813 248.619 309.232C248.83 308.647 249.238 308.195 249.843 307.877C250.457 307.555 251.06 307.475 251.653 307.637C252.255 307.795 252.713 308.173 253.026 308.769C253.335 309.357 253.389 309.941 253.186 310.522C252.98 311.094 252.565 311.544 251.943 311.871C251.329 312.193 250.728 312.278 250.139 312.124C249.546 311.961 249.095 311.586 248.786 310.998Z" fill="#FFDE2D"/>
<path d="M269.337 300.964C268.959 300.764 268.572 300.456 268.176 300.042C267.988 301.565 267.222 302.797 265.876 303.735C264.602 304.623 263.288 304.992 261.933 304.842C260.586 304.686 259.521 304.047 258.739 302.926C257.779 301.548 257.55 300.136 258.053 298.689C258.565 297.237 259.783 295.834 261.708 294.48L263.306 293.366L262.786 292.621C262.367 292.02 261.876 291.648 261.312 291.506C260.756 291.357 260.146 291.515 259.481 291.979C258.896 292.387 258.534 292.848 258.393 293.363C258.26 293.872 258.364 294.371 258.704 294.86L255.232 297.282C254.707 296.529 254.453 295.67 254.471 294.705C254.489 293.74 254.796 292.781 255.394 291.829C255.986 290.868 256.811 290.019 257.868 289.282C259.47 288.165 261.022 287.684 262.523 287.839C264.027 287.981 265.287 288.781 266.304 290.239L270.234 295.874C271.102 297.102 271.925 297.915 272.703 298.313L272.845 298.517L269.337 300.964ZM264.781 300.552C265.294 300.194 265.688 299.753 265.964 299.227C266.235 298.693 266.34 298.161 266.28 297.631L264.722 295.396L263.424 296.301C261.686 297.513 261.18 298.759 261.905 300.039L262.036 300.252C262.338 300.684 262.738 300.935 263.238 301.003C263.738 301.071 264.252 300.92 264.781 300.552Z" fill="#FFDE2D"/>
<path d="M284.181 277.831C285.938 279.663 286.919 281.469 287.124 283.249C287.322 285.021 286.719 286.58 285.316 287.925C284.076 289.114 282.629 289.588 280.977 289.346L282.005 290.694L279.256 293.33L263.683 277.09L266.739 274.16L272.325 279.986C272.239 278.485 272.771 277.184 273.92 276.082C275.315 274.744 276.901 274.211 278.677 274.483C280.454 274.741 282.234 275.801 284.019 277.662L284.181 277.831ZM280.913 280.539C279.804 279.383 278.813 278.716 277.94 278.539C277.059 278.355 276.256 278.611 275.53 279.307C274.558 280.24 274.27 281.28 274.667 282.428L278.997 286.943C280.141 287.388 281.203 287.141 282.182 286.201C283.169 285.255 283.351 284.147 282.729 282.877C282.43 282.27 281.825 281.49 280.913 280.539Z" fill="#FFDE2D"/>
<path d="M288.255 272.924C287.002 271.976 286.067 270.888 285.451 269.663C284.835 268.438 284.6 267.17 284.747 265.86C284.899 264.543 285.429 263.284 286.336 262.085C287.627 260.379 289.2 259.384 291.057 259.099C292.92 258.807 294.794 259.276 296.679 260.506L297.561 261.137C299.5 262.604 300.648 264.324 301.005 266.296C301.354 268.263 300.839 270.157 299.46 271.979C298.081 273.802 296.395 274.816 294.402 275.022C292.414 275.221 290.416 274.56 288.407 273.039L288.255 272.924ZM291.055 269.734C292.254 270.642 293.344 271.111 294.325 271.143C295.297 271.168 296.102 270.761 296.738 269.92C297.357 269.102 297.529 268.228 297.253 267.297C296.97 266.36 296.139 265.37 294.761 264.327C293.585 263.437 292.5 262.978 291.506 262.948C290.512 262.918 289.7 263.32 289.069 264.153C288.445 264.979 288.285 265.862 288.589 266.803C288.886 267.737 289.708 268.715 291.055 269.734Z" fill="#FFDE2D"/>
<path d="M311.227 249.774C311.856 251.293 311.737 252.867 310.87 254.497C310.071 255.996 309.03 256.913 307.746 257.247C306.466 257.573 304.99 257.301 303.317 256.433L294.15 251.552L296.139 247.815L305.177 252.627C306.634 253.403 307.716 253.127 308.423 251.8C309.097 250.532 309.121 249.428 308.494 248.485L298.59 243.212L300.587 239.462L314.577 246.911L312.704 250.428L311.227 249.774Z" fill="#FFDE2D"/>
<path d="M301.319 227.12L304.972 228.475L305.914 225.934L308.826 227.014L307.884 229.555L315.3 232.305C315.85 232.509 316.283 232.549 316.599 232.427C316.915 232.305 317.183 231.946 317.404 231.351C317.567 230.911 317.679 230.51 317.741 230.148L320.749 231.263C320.698 232.13 320.52 232.975 320.214 233.799C319.182 236.583 317.25 237.481 314.419 236.493L306.412 233.524L305.607 235.694L302.695 234.614L303.5 232.444L299.847 231.089L301.319 227.12Z" fill="#FFDE2D"/>
<path d="M303.746 213.995L319.965 211.495L305.782 203.258L306.858 197.588L327.813 201.563L326.991 205.894L321.263 204.808L311.458 202.501L326 211.119L325.438 214.083L308.767 216.766L318.722 218.207L324.45 219.293L323.631 223.611L302.676 219.636L303.746 213.995Z" fill="#FFDE2D"/>
<path d="M328.589 184.98C328.593 187.304 327.883 189.2 326.459 190.667C325.036 192.124 323.138 192.855 320.765 192.858L320.354 192.859C318.763 192.862 317.341 192.556 316.09 191.943C314.829 191.33 313.861 190.462 313.186 189.34C312.5 188.208 312.156 186.92 312.154 185.475C312.151 183.307 312.832 181.601 314.197 180.359C315.562 179.107 317.5 178.479 320.009 178.475L321.738 178.472L321.754 188.565C322.789 188.426 323.618 188.015 324.242 187.33C324.866 186.636 325.177 185.762 325.175 184.707C325.173 183.076 324.58 181.803 323.397 180.886L325.723 178.803C326.622 179.436 327.327 180.294 327.836 181.377C328.336 182.461 328.587 183.661 328.589 184.98ZM315.582 185.484C315.583 186.324 315.868 187.007 316.435 187.533C317.002 188.05 317.813 188.381 318.868 188.525L318.859 182.637L318.522 182.637C317.584 182.658 316.862 182.913 316.355 183.402C315.838 183.892 315.581 184.585 315.582 185.484Z" fill="#FFDE2D"/>
<path d="M325.452 170.748C324.783 170.833 324.213 170.679 323.739 170.286C323.265 169.884 322.984 169.344 322.898 168.666C322.811 167.978 322.947 167.385 323.307 166.886C323.665 166.378 324.179 166.081 324.847 165.996C325.506 165.912 326.072 166.066 326.545 166.459C327.009 166.853 327.285 167.399 327.374 168.096C327.461 168.784 327.33 169.376 326.98 169.874C326.62 170.372 326.111 170.664 325.452 170.748Z" fill="#FFDE2D"/>
</svg>
